<svg width="1111" height="196" viewBox="0 0 1111 196" fill="none" xmlns="http://www.w3.org/2000/svg">
<g opacity="0.503176" clip-path="url(#clip0_0_2119)">
<path d="M125.705 101.45C134.205 101.45 141.63 103.075 147.98 106.325C154.33 109.525 159.255 114.025 162.755 119.825C166.305 125.625 168.08 132.375 168.08 140.075C168.08 147.175 166.23 153.6 162.53 159.35C158.83 165.1 153.705 169.675 147.155 173.075C140.655 176.425 133.105 178.1 124.505 178.1C116.005 178.1 108.58 176.475 102.23 173.225C95.8799 169.925 90.9299 165.375 87.3799 159.575C83.8799 153.775 82.1299 147.075 82.1299 139.475C82.1299 132.225 83.9799 125.75 87.6799 120.05C91.3799 114.3 96.4799 109.775 102.98 106.475C109.53 103.125 117.105 101.45 125.705 101.45ZM131.18 167.225C133.08 166.775 134.53 165.45 135.53 163.25C136.53 161.05 136.98 157.85 136.88 153.65C136.78 149.45 136.03 144.125 134.63 137.675C133.33 131.475 131.855 126.425 130.205 122.525C128.605 118.625 126.855 115.825 124.955 114.125C123.055 112.425 121.08 111.825 119.03 112.325C117.13 112.775 115.68 114.1 114.68 116.3C113.68 118.5 113.23 121.7 113.33 125.9C113.48 130.05 114.23 135.375 115.58 141.875C116.88 148.025 118.355 153.075 120.005 157.025C121.655 160.925 123.405 163.725 125.255 165.425C127.155 167.075 129.13 167.675 131.18 167.225ZM231.162 160.625V159.65H230.037V125C230.037 123.4 229.812 122.275 229.362 121.625C228.962 120.925 228.337 120.45 227.487 120.2L225.837 119.675C224.787 119.325 224.012 118.825 223.512 118.175C223.062 117.525 222.837 116.7 222.837 115.7C222.837 114.5 223.162 113.55 223.812 112.85C224.462 112.15 225.687 111.45 227.487 110.75L244.137 104.3C246.687 103.3 248.737 102.575 250.287 102.125C251.887 101.675 253.437 101.45 254.937 101.45C257.187 101.45 258.887 102.1 260.037 103.4C261.237 104.65 261.837 106.25 261.837 108.2V160.25C261.837 162.25 261.987 163.675 262.287 164.525C262.587 165.325 263.112 165.9 263.862 166.25L265.512 167C266.662 167.5 267.487 168.125 267.987 168.875C268.487 169.625 268.737 170.5 268.737 171.5C268.737 172.9 268.287 174 267.387 174.8C266.487 175.6 265.037 176 263.037 176H244.662C241.112 176 237.962 174.475 235.212 171.425C232.512 168.375 231.162 164.775 231.162 160.625ZM181.587 154.1V125C181.587 123.4 181.362 122.275 180.912 121.625C180.512 120.925 179.887 120.45 179.037 120.2L177.387 119.675C176.337 119.325 175.562 118.825 175.062 118.175C174.612 117.525 174.387 116.7 174.387 115.7C174.387 114.5 174.712 113.55 175.362 112.85C176.012 112.15 177.237 111.45 179.037 110.75L195.687 104.3C198.387 103.25 200.512 102.525 202.062 102.125C203.612 101.675 204.987 101.45 206.187 101.45C208.587 101.45 210.387 102.1 211.587 103.4C212.787 104.65 213.387 106.25 213.387 108.2V149.6C213.387 152.8 214.112 155.2 215.562 156.8C217.062 158.4 219.137 159.2 221.787 159.2C223.437 159.2 225.162 158.875 226.962 158.225C228.762 157.575 230.362 156.625 231.762 155.375L234.387 153.05L238.887 157.85L236.637 159.95C229.587 166.7 223.462 171.425 218.262 174.125C213.062 176.775 208.287 178.1 203.937 178.1C197.287 178.1 191.887 175.875 187.737 171.425C183.637 166.975 181.587 161.2 181.587 154.1ZM313.183 135.05C313.183 127.4 314.183 121.1 316.183 116.15C318.183 111.15 320.833 107.45 324.133 105.05C327.483 102.65 331.133 101.45 335.083 101.45C340.383 101.45 344.433 103.05 347.233 106.25C350.083 109.4 351.508 114.175 351.508 120.575C351.508 127.125 350.183 131.95 347.533 135.05C344.933 138.15 341.533 139.7 337.333 139.7C333.083 139.7 329.883 138.625 327.733 136.475C325.633 134.275 324.583 131.25 324.583 127.4V124.25C324.533 122.95 324.233 121.975 323.683 121.325C323.183 120.625 322.383 120.275 321.283 120.275C320.283 120.275 319.383 120.725 318.583 121.625C317.833 122.475 317.233 123.9 316.783 125.9C316.333 127.85 316.108 130.5 316.108 133.85L313.183 135.05ZM314.008 108.2L316.108 123.875V160.25C316.108 162 316.358 163.25 316.858 164C317.358 164.7 318.508 165.225 320.308 165.575L326.008 166.7C327.508 167 328.608 167.525 329.308 168.275C330.008 169.025 330.358 170.075 330.358 171.425C330.358 172.875 329.858 174 328.858 174.8C327.908 175.6 326.483 176 324.583 176H283.108C281.108 176 279.658 175.6 278.758 174.8C277.858 174 277.408 172.9 277.408 171.5C277.408 170.5 277.658 169.625 278.158 168.875C278.658 168.125 279.483 167.5 280.633 167L282.283 166.25C283.033 165.9 283.558 165.325 283.858 164.525C284.158 163.675 284.308 162.25 284.308 160.25V125.3C284.308 123.7 284.083 122.575 283.633 121.925C283.233 121.225 282.608 120.75 281.758 120.5L280.108 119.975C279.058 119.625 278.283 119.125 277.783 118.475C277.333 117.825 277.108 117 277.108 116C277.108 114.8 277.433 113.85 278.083 113.15C278.783 112.4 280.008 111.7 281.758 111.05L297.883 104.75C301.433 103.35 303.983 102.45 305.533 102.05C307.083 101.65 308.283 101.45 309.133 101.45C310.533 101.45 311.608 101.975 312.358 103.025C313.108 104.025 313.658 105.75 314.008 108.2ZM463.068 124.625C463.068 128.425 461.618 131.65 458.718 134.3C455.868 136.95 452.043 138.275 447.243 138.275C442.593 138.275 439.093 137.05 436.743 134.6C434.443 132.1 433.293 128.925 433.293 125.075V122.675C433.293 119.425 432.618 116.875 431.268 115.025C429.918 113.125 428.143 112.175 425.943 112.175C424.193 112.175 422.543 112.825 420.993 114.125C419.493 115.425 418.268 117.425 417.318 120.125C416.368 122.775 415.893 126.15 415.893 130.25C415.893 136.05 416.868 140.9 418.818 144.8C420.818 148.7 423.543 151.65 426.993 153.65C430.443 155.6 434.368 156.575 438.768 156.575C441.968 156.575 444.843 156.2 447.393 155.45C449.993 154.65 452.568 153.125 455.118 150.875C456.568 149.575 457.668 148.7 458.418 148.25C459.168 147.8 459.893 147.575 460.593 147.575C461.593 147.575 462.318 148.075 462.768 149.075C463.268 150.075 463.518 151.3 463.518 152.75C463.518 157.2 462.018 161.375 459.018 165.275C456.068 169.125 451.943 172.225 446.643 174.575C441.343 176.925 435.193 178.1 428.193 178.1C420.543 178.1 413.668 176.6 407.568 173.6C401.518 170.55 396.718 166.325 393.168 160.925C389.618 155.475 387.843 149.125 387.843 141.875C387.843 134.125 389.543 127.2 392.943 121.1C396.393 115 401.243 110.2 407.493 106.7C413.793 103.2 421.218 101.45 429.768 101.45C436.618 101.45 442.518 102.5 447.468 104.6C452.468 106.65 456.318 109.425 459.018 112.925C461.718 116.425 463.068 120.325 463.068 124.625ZM515.06 101.45C523.56 101.45 530.985 103.075 537.335 106.325C543.685 109.525 548.61 114.025 552.11 119.825C555.66 125.625 557.435 132.375 557.435 140.075C557.435 147.175 555.585 153.6 551.885 159.35C548.185 165.1 543.06 169.675 536.51 173.075C530.01 176.425 522.46 178.1 513.86 178.1C505.36 178.1 497.935 176.475 491.585 173.225C485.235 169.925 480.285 165.375 476.735 159.575C473.235 153.775 471.485 147.075 471.485 139.475C471.485 132.225 473.335 125.75 477.035 120.05C480.735 114.3 485.835 109.775 492.335 106.475C498.885 103.125 506.46 101.45 515.06 101.45ZM520.535 167.225C522.435 166.775 523.885 165.45 524.885 163.25C525.885 161.05 526.335 157.85 526.235 153.65C526.135 149.45 525.385 144.125 523.985 137.675C522.685 131.475 521.21 126.425 519.56 122.525C517.96 118.625 516.21 115.825 514.31 114.125C512.41 112.425 510.435 111.825 508.385 112.325C506.485 112.775 505.035 114.1 504.035 116.3C503.035 118.5 502.585 121.7 502.685 125.9C502.835 130.05 503.585 135.375 504.935 141.875C506.235 148.025 507.71 153.075 509.36 157.025C511.01 160.925 512.76 163.725 514.61 165.425C516.51 167.075 518.485 167.675 520.535 167.225ZM604.242 69.5V160.25C604.242 162.25 604.392 163.675 604.692 164.525C604.992 165.325 605.517 165.9 606.267 166.25L607.917 167C609.067 167.5 609.892 168.125 610.392 168.875C610.892 169.625 611.142 170.5 611.142 171.5C611.142 172.9 610.692 174 609.792 174.8C608.892 175.6 607.442 176 605.442 176H571.242C569.242 176 567.792 175.6 566.892 174.8C565.992 174 565.542 172.9 565.542 171.5C565.542 170.5 565.792 169.625 566.292 168.875C566.792 168.125 567.617 167.5 568.767 167L570.417 166.25C571.167 165.9 571.692 165.325 571.992 164.525C572.292 163.675 572.442 162.25 572.442 160.25V86.3C572.442 84.7 572.217 83.575 571.767 82.925C571.367 82.225 570.742 81.75 569.892 81.5L568.242 80.975C567.192 80.625 566.417 80.125 565.917 79.475C565.467 78.825 565.242 78 565.242 77C565.242 75.8 565.567 74.85 566.217 74.15C566.867 73.45 568.092 72.75 569.892 72.05L586.542 65.6C589.242 64.55 591.367 63.825 592.917 63.425C594.467 62.975 595.842 62.75 597.042 62.75C599.442 62.75 601.242 63.4 602.442 64.7C603.642 65.95 604.242 67.55 604.242 69.5ZM656.977 69.5V160.25C656.977 162.25 657.127 163.675 657.427 164.525C657.727 165.325 658.252 165.9 659.002 166.25L660.652 167C661.802 167.5 662.627 168.125 663.127 168.875C663.627 169.625 663.877 170.5 663.877 171.5C663.877 172.9 663.427 174 662.527 174.8C661.627 175.6 660.177 176 658.177 176H623.977C621.977 176 620.527 175.6 619.627 174.8C618.727 174 618.277 172.9 618.277 171.5C618.277 170.5 618.527 169.625 619.027 168.875C619.527 168.125 620.352 167.5 621.502 167L623.152 166.25C623.902 165.9 624.427 165.325 624.727 164.525C625.027 163.675 625.177 162.25 625.177 160.25V86.3C625.177 84.7 624.952 83.575 624.502 82.925C624.102 82.225 623.477 81.75 622.627 81.5L620.977 80.975C619.927 80.625 619.152 80.125 618.652 79.475C618.202 78.825 617.977 78 617.977 77C617.977 75.8 618.302 74.85 618.952 74.15C619.602 73.45 620.827 72.75 622.627 72.05L639.277 65.6C641.977 64.55 644.102 63.825 645.652 63.425C647.202 62.975 648.577 62.75 649.777 62.75C652.177 62.75 653.977 63.4 655.177 64.7C656.377 65.95 656.977 67.55 656.977 69.5ZM746.986 130.4C746.986 133.9 746.036 136.625 744.136 138.575C742.236 140.475 739.511 141.425 735.961 141.425H691.486V133.625H711.511C714.261 133.625 715.636 132.325 715.636 129.725C715.636 123.425 714.911 118.925 713.461 116.225C712.011 113.525 710.086 112.175 707.686 112.175C705.936 112.175 704.361 112.825 702.961 114.125C701.561 115.425 700.436 117.425 699.586 120.125C698.786 122.775 698.386 126.15 698.386 130.25C698.386 139.35 700.436 146.025 704.536 150.275C708.636 154.475 714.236 156.575 721.336 156.575C724.636 156.575 727.636 156.2 730.336 155.45C733.036 154.7 735.686 153.175 738.286 150.875C739.736 149.575 740.836 148.7 741.586 148.25C742.336 147.8 743.061 147.575 743.761 147.575C744.761 147.575 745.486 148.075 745.936 149.075C746.436 150.075 746.686 151.3 746.686 152.75C746.686 157.2 745.161 161.375 742.111 165.275C739.111 169.125 734.911 172.225 729.511 174.575C724.161 176.925 717.911 178.1 710.761 178.1C703.111 178.1 696.236 176.6 690.136 173.6C684.036 170.55 679.211 166.325 675.661 160.925C672.111 155.475 670.336 149.125 670.336 141.875C670.336 133.725 671.961 126.625 675.211 120.575C678.461 114.525 683.186 109.825 689.386 106.475C695.636 103.125 703.161 101.45 711.961 101.45C719.711 101.45 726.186 102.7 731.386 105.2C736.586 107.7 740.486 111.125 743.086 115.475C745.686 119.825 746.986 124.8 746.986 130.4ZM829.572 124.625C829.572 128.425 828.122 131.65 825.222 134.3C822.372 136.95 818.547 138.275 813.747 138.275C809.097 138.275 805.597 137.05 803.247 134.6C800.947 132.1 799.797 128.925 799.797 125.075V122.675C799.797 119.425 799.122 116.875 797.772 115.025C796.422 113.125 794.647 112.175 792.447 112.175C790.697 112.175 789.047 112.825 787.497 114.125C785.997 115.425 784.772 117.425 783.822 120.125C782.872 122.775 782.397 126.15 782.397 130.25C782.397 136.05 783.372 140.9 785.322 144.8C787.322 148.7 790.047 151.65 793.497 153.65C796.947 155.6 800.872 156.575 805.272 156.575C808.472 156.575 811.347 156.2 813.897 155.45C816.497 154.65 819.072 153.125 821.622 150.875C823.072 149.575 824.172 148.7 824.922 148.25C825.672 147.8 826.397 147.575 827.097 147.575C828.097 147.575 828.822 148.075 829.272 149.075C829.772 150.075 830.022 151.3 830.022 152.75C830.022 157.2 828.522 161.375 825.522 165.275C822.572 169.125 818.447 172.225 813.147 174.575C807.847 176.925 801.697 178.1 794.697 178.1C787.047 178.1 780.172 176.6 774.072 173.6C768.022 170.55 763.222 166.325 759.672 160.925C756.122 155.475 754.347 149.125 754.347 141.875C754.347 134.125 756.047 127.2 759.447 121.1C762.897 115 767.747 110.2 773.997 106.7C780.297 103.2 787.722 101.45 796.272 101.45C803.122 101.45 809.022 102.5 813.972 104.6C818.972 106.65 822.822 109.425 825.522 112.925C828.222 116.425 829.572 120.325 829.572 124.625ZM841.439 113.45L839.039 112.475C837.939 112.025 837.114 111.45 836.564 110.75C836.014 110.05 835.739 109.2 835.739 108.2C835.739 106.75 836.214 105.65 837.164 104.9C838.164 104.1 839.439 103.7 840.989 103.7H845.114C846.064 103.7 846.939 103.45 847.739 102.95C848.589 102.45 849.664 101.55 850.964 100.25L863.189 87.875C864.839 86.225 866.364 85 867.764 84.2C869.214 83.4 870.589 83 871.889 83C873.339 83 874.464 83.475 875.264 84.425C876.114 85.375 876.539 86.75 876.539 88.55V148.7C876.539 152.35 877.164 155.125 878.414 157.025C879.664 158.925 881.464 159.875 883.814 159.875C885.714 159.875 887.164 159.4 888.164 158.45C889.214 157.5 890.039 156.425 890.639 155.225C891.289 153.975 891.964 152.875 892.664 151.925C893.364 150.975 894.314 150.5 895.514 150.5C896.514 150.5 897.314 150.85 897.914 151.55C898.514 152.25 898.814 153.45 898.814 155.15C898.814 159.4 897.589 163.275 895.139 166.775C892.689 170.225 889.314 172.975 885.014 175.025C880.714 177.075 875.814 178.1 870.314 178.1C862.164 178.1 855.864 176.15 851.414 172.25C846.964 168.3 844.739 162.35 844.739 154.4V118.325C844.739 116.875 844.464 115.825 843.914 115.175C843.414 114.525 842.589 113.95 841.439 113.45ZM865.589 114.35V103.7H892.964C894.514 103.7 895.739 104.05 896.639 104.75C897.589 105.4 898.064 106.35 898.064 107.6C898.064 109.5 897.139 111.1 895.289 112.4C893.439 113.7 890.389 114.35 886.139 114.35H865.589ZM943.647 108.2V160.25C943.647 162.25 943.797 163.675 944.097 164.525C944.397 165.325 944.922 165.9 945.672 166.25L947.322 167C948.472 167.5 949.297 168.125 949.797 168.875C950.297 169.625 950.547 170.5 950.547 171.5C950.547 172.9 950.097 174 949.197 174.8C948.297 175.6 946.847 176 944.847 176H910.647C908.647 176 907.197 175.6 906.297 174.8C905.397 174 904.947 172.9 904.947 171.5C904.947 170.5 905.197 169.625 905.697 168.875C906.197 168.125 907.022 167.5 908.172 167L909.822 166.25C910.572 165.9 911.097 165.325 911.397 164.525C911.697 163.675 911.847 162.25 911.847 160.25V125C911.847 123.4 911.622 122.275 911.172 121.625C910.772 120.925 910.147 120.45 909.297 120.2L907.647 119.675C906.597 119.325 905.822 118.825 905.322 118.175C904.872 117.525 904.647 116.7 904.647 115.7C904.647 114.5 904.972 113.55 905.622 112.85C906.272 112.15 907.497 111.45 909.297 110.75L925.947 104.3C928.647 103.25 930.772 102.525 932.322 102.125C933.872 101.675 935.247 101.45 936.447 101.45C938.847 101.45 940.647 102.1 941.847 103.4C943.047 104.65 943.647 106.25 943.647 108.2ZM926.097 94.85C920.497 94.85 916.072 93.55 912.822 90.95C909.572 88.35 907.947 84.8 907.947 80.3C907.947 75.85 909.572 72.35 912.822 69.8C916.072 67.25 920.497 65.975 926.097 65.975C931.697 65.975 936.122 67.25 939.372 69.8C942.622 72.35 944.247 75.85 944.247 80.3C944.247 84.8 942.622 88.35 939.372 90.95C936.122 93.55 931.697 94.85 926.097 94.85ZM1000.66 101.45C1009.16 101.45 1016.58 103.075 1022.93 106.325C1029.28 109.525 1034.21 114.025 1037.71 119.825C1041.26 125.625 1043.03 132.375 1043.03 140.075C1043.03 147.175 1041.18 153.6 1037.48 159.35C1033.78 165.1 1028.66 169.675 1022.11 173.075C1015.61 176.425 1008.06 178.1 999.456 178.1C990.956 178.1 983.531 176.475 977.181 173.225C970.831 169.925 965.881 165.375 962.331 159.575C958.831 153.775 957.081 147.075 957.081 139.475C957.081 132.225 958.931 125.75 962.631 120.05C966.331 114.3 971.431 109.775 977.931 106.475C984.481 103.125 992.056 101.45 1000.66 101.45ZM1006.13 167.225C1008.03 166.775 1009.48 165.45 1010.48 163.25C1011.48 161.05 1011.93 157.85 1011.83 153.65C1011.73 149.45 1010.98 144.125 1009.58 137.675C1008.28 131.475 1006.81 126.425 1005.16 122.525C1003.56 118.625 1001.81 115.825 999.906 114.125C998.006 112.425 996.031 111.825 993.981 112.325C992.081 112.775 990.631 114.1 989.631 116.3C988.631 118.5 988.181 121.7 988.281 125.9C988.431 130.05 989.181 135.375 990.531 141.875C991.831 148.025 993.306 153.075 994.956 157.025C996.606 160.925 998.356 163.725 1000.21 165.425C1002.11 167.075 1004.08 167.675 1006.13 167.225ZM1089.84 108.2V160.25C1089.84 162.25 1089.99 163.65 1090.29 164.45C1090.59 165.25 1091.11 165.85 1091.86 166.25L1093.36 167.075C1095.01 168.025 1095.84 169.4 1095.84 171.2C1095.84 174.4 1093.91 176 1090.06 176H1056.84C1054.84 176 1053.39 175.6 1052.49 174.8C1051.59 174 1051.14 172.9 1051.14 171.5C1051.14 170.5 1051.39 169.625 1051.89 168.875C1052.39 168.125 1053.21 167.5 1054.36 167L1056.01 166.25C1056.76 165.9 1057.29 165.325 1057.59 164.525C1057.89 163.675 1058.04 162.25 1058.04 160.25V125C1058.04 123.4 1057.81 122.275 1057.36 121.625C1056.96 120.925 1056.34 120.45 1055.49 120.2L1053.84 119.675C1052.79 119.325 1052.01 118.825 1051.51 118.175C1051.06 117.525 1050.84 116.7 1050.84 115.7C1050.84 114.5 1051.16 113.55 1051.81 112.85C1052.46 112.15 1053.69 111.45 1055.49 110.75L1072.14 104.3C1074.69 103.3 1076.74 102.575 1078.29 102.125C1079.89 101.675 1081.44 101.45 1082.94 101.45C1085.19 101.45 1086.89 102.1 1088.04 103.4C1089.24 104.65 1089.84 106.25 1089.84 108.2ZM1087.14 126.5L1082.64 121.7L1084.89 119.6C1091.94 112.85 1098.06 108.15 1103.26 105.5C1108.46 102.8 1113.24 101.45 1117.59 101.45C1124.29 101.45 1129.69 103.675 1133.79 108.125C1137.89 112.525 1139.94 118.3 1139.94 125.45V160.25C1139.94 162.25 1140.09 163.675 1140.39 164.525C1140.69 165.325 1141.21 165.9 1141.96 166.25L1143.61 167C1144.76 167.5 1145.59 168.125 1146.09 168.875C1146.59 169.625 1146.84 170.5 1146.84 171.5C1146.84 172.9 1146.39 174 1145.49 174.8C1144.59 175.6 1143.14 176 1141.14 176H1107.91C1104.06 176 1102.14 174.4 1102.14 171.2C1102.14 169.4 1102.96 168.025 1104.61 167.075L1106.11 166.25C1106.86 165.85 1107.39 165.25 1107.69 164.45C1107.99 163.65 1108.14 162.25 1108.14 160.25V129.95C1108.14 126.75 1107.39 124.35 1105.89 122.75C1104.44 121.15 1102.39 120.35 1099.74 120.35C1098.09 120.35 1096.36 120.675 1094.56 121.325C1092.76 121.975 1091.16 122.925 1089.76 124.175L1087.14 126.5Z" fill="#83888F"/>
<rect width="1111" height="196" fill="url(#paint0_linear_0_2119)"/>
</g>
<defs>
<linearGradient id="paint0_linear_0_2119" x1="0" y1="0" x2="0" y2="196" gradientUnits="userSpaceOnUse">
<stop stop-color="#FEFCF7" stop-opacity="0.01"/>
<stop offset="1" stop-color="#FEFCF7"/>
</linearGradient>
<clipPath id="clip0_0_2119">
<rect width="1111" height="196" fill="white"/>
</clipPath>
</defs>
</svg>
